<?xml version="1.0" encoding="UTF-8"?>
<svg id="Layer_1" xmlns="http://www.w3.org/2000/svg" viewBox="0 0 666.46 800">
  <defs>
    <style>
      .cls-1 {
        fill: #f6e3cf;
      }
    </style>
  </defs>
  <path class="cls-1" d="M604.38,10.65L240.74,374.28c-6.82,6.82-10.65,16.07-10.65,25.71s3.83,18.89,10.65,25.71l363.64,363.65c14.21,14.2,37.23,14.2,51.43,0,14.2-14.21,14.2-37.23,0-51.43l-337.92-337.92L655.81,62.08c14.2-14.21,14.2-37.23,0-51.43-14.21-14.2-37.23-14.2-51.43,0Z"/>
  <path class="cls-1" d="M374.29,10.65L10.65,374.28C3.83,381.1,0,390.35,0,399.99s3.83,18.89,10.65,25.71l363.64,363.65c14.21,14.2,37.23,14.2,51.43,0,14.2-14.21,14.2-37.23,0-51.43L87.8,400,425.72,62.08c14.2-14.21,14.2-37.23,0-51.43-14.21-14.2-37.23-14.2-51.43,0Z"/>
</svg>