<?xml version="1.0" encoding="UTF-8"?>
<svg id="Lager_1" xmlns="http://www.w3.org/2000/svg" version="1.1" viewBox="0 0 200.93 214.71">
  <!-- Generator: Adobe Illustrator 29.5.0, SVG Export Plug-In . SVG Version: 2.1.0 Build 137)  -->
  <defs>
    <style>
      .st0 {
        fill: #79311b;
      }

      .st1 {
        fill: #f7e3d0;
      }
    </style>
  </defs>
  <ellipse class="st0" cx="92.69" cy="197.49" rx="88.18" ry="16.94"/>
  <path class="st1" d="M176.51,121.97c75.24-84.34-47.44-64.5-47.44-64.5C42.67-83.43,29.26,77.91,29.26,77.91c-65.55,0,.49,63.9.49,63.9-1,94.26,57.61,30.76,57.61,30.76,50.65,69.46,75.49-14.89,75.49-14.89,49.66-.99,13.67-35.72,13.67-35.72ZM60.31,106.57c-7.51,0-13.58-6.07-13.58-13.57s6.08-13.57,13.58-13.57,13.58,6.08,13.58,13.57-6.09,13.57-13.58,13.57ZM107.97,116.48c-.91,3.29-4.13-4.46-11.31-6.27-7.19-1.81-11.7,3.46-10.78.16.91-3.29,6.6-4.6,12.7-2.91,6.1,1.69,10.31,5.73,9.39,9.02ZM137.63,118.93c-5.76,0-10.43-4.66-10.43-10.43s4.67-10.42,10.43-10.42,10.44,4.66,10.44,10.42-4.68,10.43-10.44,10.43Z"/>
</svg>