<?xml version="1.0" encoding="UTF-8"?>
<svg id="Lager_1" xmlns="http://www.w3.org/2000/svg" version="1.1" viewBox="0 0 201.67 214.71">
  <!-- Generator: Adobe Illustrator 29.5.0, SVG Export Plug-In . SVG Version: 2.1.0 Build 137)  -->
  <defs>
    <style>
      .st0 {
        fill: #79311b;
      }

      .st1 {
        fill: #f7e3d0;
      }
    </style>
  </defs>
  <ellipse class="st0" cx="93.26" cy="197.2" rx="88.18" ry="16.94"/>
  <path class="st1" d="M177.06,122.5c75.34-84.53-47.5-64.64-47.5-64.64C43.04-83.36,29.62,78.35,29.62,78.35c-65.63,0,.5,64.05.5,64.05-1,94.47,57.68,30.83,57.68,30.83,50.71,69.62,75.58-14.92,75.58-14.92,49.72-.99,13.69-35.8,13.69-35.8ZM60.71,107.07c-7.52,0-13.6-6.09-13.6-13.6s6.09-13.6,13.6-13.6,13.6,6.1,13.6,13.6-6.1,13.6-13.6,13.6ZM108.71,113.28c-.88,3.31-6.56,4.67-12.69,3.04s-10.37-5.64-9.49-8.95c.88-3.31,2.11,3.53,9.23,5.6,7.12,2.07,13.83-3,12.95.31ZM138.13,119.45c-5.77,0-10.44-4.67-10.44-10.45s4.67-10.44,10.44-10.44,10.45,4.67,10.45,10.44-4.68,10.45-10.45,10.45Z"/>
</svg>