<?xml version="1.0" encoding="UTF-8"?>
<svg id="Lager_1" xmlns="http://www.w3.org/2000/svg" viewBox="0 0 214.94 214.71">
  <defs>
    <style>
      .cls-1 {
        fill: #f7e3d0;
      }
    </style>
  </defs>
  <path class="cls-1" d="M188.79,131.04c80.59-90.42-50.81-69.15-50.81-69.15C45.43-89.17,31.07,83.81,31.07,83.81c-70.21,0,.53,68.51.53,68.51-1.07,101.06,61.7,32.98,61.7,32.98,54.25,74.47,80.85-15.96,80.85-15.96,53.19-1.06,14.64-38.3,14.64-38.3ZM64.33,114.53c-8.04,0-14.55-6.51-14.55-14.55s6.51-14.55,14.55-14.55,14.55,6.52,14.55,14.55-6.52,14.55-14.55,14.55ZM147.14,127.78c-6.17,0-11.17-5-11.17-11.18s5-11.17,11.17-11.17,11.18,5,11.18,11.17-5.01,11.18-11.18,11.18Z"/>
</svg>