<?xml version="1.0" encoding="UTF-8"?>
<svg id="Lager_1" xmlns="http://www.w3.org/2000/svg" viewBox="0 0 54.84 54.14">
  <defs>
    <style>
      .cls-1 {
        fill: #9f4125;
      }
    </style>
  </defs>
  <path class="cls-1" d="M22,7c4.01,0,7.77,1.56,10.61,4.39,2.83,2.83,4.39,6.6,4.39,10.61s-1.56,7.77-4.39,10.61-6.6,4.39-10.61,4.39-7.77-1.56-10.61-4.39c-2.83-2.83-4.39-6.6-4.39-10.61s1.56-7.77,4.39-10.61c2.83-2.83,6.6-4.39,10.61-4.39M22,0c-5.63,0-11.26,2.15-15.56,6.44-8.59,8.59-8.59,22.52,0,31.11,4.3,4.3,9.93,6.44,15.56,6.44s11.26-2.15,15.56-6.44c8.59-8.59,8.59-22.52,0-31.11C33.26,2.15,27.63,0,22,0h0Z"/>
  <path class="cls-1" d="M48.87,53.11c1.37,1.37,3.58,1.37,4.95,0s1.37-3.58,0-4.95l-14.85-14.85c-1.37-1.37-3.58-1.37-4.95,0-1.37,1.37-1.37,3.58,0,4.95l14.85,14.85"/>
</svg>